<svg width="21" height="21" viewBox="0 0 21 21" fill="none" xmlns="http://www.w3.org/2000/svg">
<g clip-path="url(#clip0_3504_16206)">
<path d="M2.267 20.0421C1.77668 20.0706 1.29444 19.9076 0.921983 19.5875C0.187464 18.8486 0.187464 17.6552 0.921983 16.9163L17.0055 0.832725C17.7695 0.117857 18.9683 0.157596 19.6831 0.921561C20.3296 1.61241 20.3673 2.67426 19.7714 3.40915L3.59305 19.5875C3.22543 19.903 2.75089 20.0657 2.267 20.0421Z" fill="black"/>
<path d="M18.332 20.0422C17.8351 20.0401 17.3588 19.8428 17.0059 19.4928L0.922318 3.40913C0.241825 2.61448 0.334341 1.41856 1.129 0.738004C1.83825 0.130626 2.88426 0.130626 3.59345 0.738004L19.7718 16.8216C20.5355 17.5367 20.575 18.7355 19.86 19.4993C19.8315 19.5297 19.8021 19.5591 19.7718 19.5875C19.5758 19.7579 19.3468 19.8862 19.0991 19.9644C18.8515 20.0427 18.5904 20.0691 18.332 20.0422Z" fill="black"/>
</g>
<defs>
<clipPath id="clip0_3504_16206">
<rect width="20" height="20" fill="white" transform="translate(0.371094 0.16748)"/>
</clipPath>
</defs>
</svg>
