<svg width="21" height="21" viewBox="0 0 21 21" fill="none" xmlns="http://www.w3.org/2000/svg">
<path d="M11.9263 8.04236V10.4499H14.0848C14.2509 10.4499 14.3339 10.6159 14.3339 10.782L14.0018 12.3593C14.0018 12.4424 13.8358 12.5254 13.7527 12.5254H11.9263V18.5858H9.43577V12.6084H8.02445C7.85841 12.6084 7.77539 12.5254 7.77539 12.3593V10.782C7.77539 10.6159 7.85841 10.5329 8.02445 10.5329H9.43577V7.7933C9.43577 6.38198 10.515 5.30273 11.9263 5.30273H14.1678C14.3339 5.30273 14.4169 5.38575 14.4169 5.55179V7.54424C14.4169 7.71028 14.3339 7.7933 14.1678 7.7933H12.1754C12.0094 7.7933 11.9263 7.87632 11.9263 8.04236Z" fill="white"/>
<path d="M12.7553 18.5857H7.77421C3.62327 18.5857 1.96289 16.9253 1.96289 12.7744V7.79325C1.96289 3.64231 3.62327 1.98193 7.77421 1.98193H12.7553C16.9063 1.98193 18.5667 3.64231 18.5667 7.79325V12.7744C18.5667 16.9253 16.9063 18.5857 12.7553 18.5857Z" stroke="white" stroke-width="1.24528" stroke-linecap="round" stroke-linejoin="round"/>
</svg>
