<svg width="21" height="21" viewBox="0 0 21 21" fill="none" xmlns="http://www.w3.org/2000/svg">
<path d="M7.77421 18.5669H12.7553C16.9063 18.5669 18.5667 16.9065 18.5667 12.7556V7.77446C18.5667 3.62351 16.9063 1.96313 12.7553 1.96313H7.77421C3.62327 1.96313 1.96289 3.62351 1.96289 7.77446V12.7556C1.96289 16.9065 3.62327 18.5669 7.77421 18.5669Z" stroke="white" stroke-width="1.24528" stroke-linecap="round" stroke-linejoin="round"/>
<path d="M10.265 13.1707C11.8698 13.1707 13.1707 11.8698 13.1707 10.265C13.1707 8.66028 11.8698 7.35938 10.265 7.35938C8.66028 7.35938 7.35938 8.66028 7.35938 10.265C7.35938 11.8698 8.66028 13.1707 10.265 13.1707Z" stroke="white" stroke-width="1.24528" stroke-linecap="round" stroke-linejoin="round"/>
<path d="M14.9441 6.11407H14.9537" stroke="white" stroke-width="1.66038" stroke-linecap="round" stroke-linejoin="round"/>
</svg>
