<svg width="21" height="21" viewBox="0 0 21 21" fill="none" xmlns="http://www.w3.org/2000/svg">
<g clip-path="url(#clip0_3915_12494)">
<path d="M7.00798 5.61133C6.25899 5.61133 5.715 6.06018 5.715 6.6775C5.715 7.29699 6.27194 7.7656 7.00798 7.7656C7.75698 7.7656 8.30097 7.30809 8.30097 6.66486C8.26644 6.04537 7.73324 5.61133 7.00798 5.61133ZM5.92874 8.19941C5.81002 8.19941 5.71289 8.29654 5.71289 8.41526V14.6749C5.71289 14.7936 5.81002 14.8907 5.92874 14.8907H8.08723C8.20595 14.8907 8.30308 14.7936 8.30308 14.6749V8.41526C8.30308 8.29654 8.20595 8.19941 8.08723 8.19941H5.92874ZM9.16648 8.19941C9.04776 8.19941 8.95063 8.29654 8.95063 8.41526V14.6749C8.95063 14.7936 9.04776 14.8907 9.16648 14.8907H11.1091C11.2283 14.8907 11.325 14.794 11.325 14.6749V11.4371V11.3832V11.3292C11.325 10.8177 11.7179 10.401 12.2187 10.3621C12.2446 10.3578 12.2704 10.3579 12.2963 10.3579C12.3222 10.3579 12.348 10.3578 12.3739 10.3621C12.8746 10.401 13.2676 10.8177 13.2676 11.3292V14.6749C13.2676 14.794 13.3643 14.8907 13.4835 14.8907H15.4261C15.5448 14.8907 15.6419 14.7936 15.6419 14.6749V11.0054C15.6419 9.6089 14.8927 8.19941 13.2221 8.19941C12.4623 8.19941 11.8883 8.49301 11.5408 8.73692V8.41526C11.5408 8.29654 11.4437 8.19941 11.325 8.19941H9.16648Z" fill="white"/>
</g>
<path d="M12.7553 19.0762H7.77421C3.62327 19.0762 1.96289 17.4158 1.96289 13.2649V8.28373C1.96289 4.13279 3.62327 2.47241 7.77421 2.47241H12.7553C16.9063 2.47241 18.5667 4.13279 18.5667 8.28373V13.2649C18.5667 17.4158 16.9063 19.0762 12.7553 19.0762Z" stroke="white" stroke-width="1.24528" stroke-linecap="round" stroke-linejoin="round"/>
<defs>
<clipPath id="clip0_3915_12494">
<rect width="10.7925" height="10.7925" fill="white" transform="translate(5.2832 4.96289)"/>
</clipPath>
</defs>
</svg>
