<svg width="139" height="88" viewBox="0 0 139 88" fill="none" xmlns="http://www.w3.org/2000/svg">
<path d="M37.6875 30.9307C40.551 25.234 45.1454 19.735 51.7619 17.9181C61.1583 15.3333 70.3444 20.9742 78.6664 24.5676C85.582 27.5502 93.0854 29.433 100.624 29.7878C99.3895 30.2689 98.1249 30.6702 96.8384 30.989C93.6142 31.7607 90.2981 32.0797 86.9859 31.9367C75.3898 31.4122 64.7542 23.2524 53.2393 23.9974C47.1929 24.3877 41.8206 27.0713 37.6875 30.9307Z" fill="#B38C69"/>
<path d="M58.3828 0.191406C58.3828 0.191406 60.3924 4.95805 60.6052 8.87576C60.8181 12.7935 59.2292 17.1395 59.2292 17.1395C59.2292 17.1395 64.5204 13.8451 64.4114 9.19252C64.3025 4.53992 58.3828 0.191406 58.3828 0.191406Z" fill="#46B35B"/>
<path d="M60.5469 17.3693C64.8548 12.6736 70.777 8.64442 77.6394 8.70777C87.3855 8.80153 94.6761 16.7459 101.701 22.4806C107.529 27.2447 114.237 31.1143 121.388 33.5191C120.073 33.6819 118.745 33.7218 117.422 33.6382C114.11 33.496 110.833 32.8938 107.686 31.8492C96.6755 28.1646 88.6804 17.4048 77.4037 14.9645C71.479 13.6797 65.5771 14.7896 60.5469 17.3693Z" fill="#21A2DC"/>
<path d="M72.8828 40.207V85.9576" stroke="#545758" stroke-width="1.17017" stroke-miterlimit="10"/>
<path d="M28.9233 40.619C29.3996 40.9058 29.79 41.3154 30.0536 41.8049L28.8524 42.735C28.4098 42.0744 27.8624 41.7441 27.2103 41.7441C26.9404 41.733 26.674 41.8085 26.4501 41.9595C26.3504 42.0278 26.2699 42.1205 26.2162 42.2287C26.1625 42.337 26.1375 42.4572 26.1434 42.5778C26.1391 42.6791 26.1573 42.78 26.1968 42.8734C26.2362 42.9667 26.2959 43.0501 26.3715 43.1176C26.6032 43.3012 26.859 43.4521 27.1317 43.5661L28.1099 43.9995C28.7115 44.239 29.2575 44.5995 29.714 45.0587C30.0612 45.4618 30.2424 45.9817 30.2208 46.5133C30.2339 46.87 30.1644 47.2248 30.0175 47.5502C29.8707 47.8755 29.6506 48.1624 29.3744 48.3885C28.7615 48.8746 27.9945 49.1246 27.2128 49.093C26.5251 49.1059 25.8469 48.9306 25.2514 48.5862C24.683 48.2518 24.2134 47.7726 23.8906 47.1975L25.0994 46.2852C25.7008 47.1181 26.4053 47.5354 27.2128 47.5371C27.5317 47.5548 27.8474 47.4657 28.1099 47.2837C28.2163 47.2016 28.3014 47.0953 28.3583 46.9737C28.4152 46.852 28.4421 46.7185 28.4368 46.5842C28.4379 46.418 28.3845 46.256 28.2848 46.123C28.1965 45.9971 28.0814 45.8924 27.9477 45.8164C27.821 45.748 27.6183 45.6466 27.3421 45.5174L26.4171 45.1018C25.8387 44.8579 25.3136 44.5032 24.8713 44.0578C24.5116 43.6683 24.3187 43.1534 24.3341 42.6235C24.3216 42.2855 24.3879 41.9493 24.5277 41.6414C24.6676 41.3336 24.8772 41.0625 25.1399 40.8496C25.7192 40.388 26.4448 40.1497 27.185 40.178C27.7861 40.1634 28.3794 40.317 28.898 40.6215" fill="#53555A"/>
<path d="M37.1314 47.8032H33.6166L33.1326 48.9233H31.2422L35.0839 40.168H35.6718L39.5008 48.9233H37.6129L37.1314 47.8032ZM35.3753 43.4648L34.24 46.3562H36.508L35.3753 43.4648Z" fill="#53555A"/>
<path d="M47.2043 45.0864C47.4754 45.4712 47.6142 45.9337 47.5996 46.4042C47.6111 46.747 47.5467 47.0881 47.4109 47.4031C47.275 47.7181 47.0713 47.9992 46.8141 48.2262C46.2472 48.7098 45.5186 48.9615 44.7741 48.9307H40.9375V40.3325H43.9784C44.6927 40.3033 45.3922 40.5419 45.9398 41.0015C46.1867 41.2152 46.3831 41.4811 46.5145 41.78C46.646 42.0789 46.7094 42.4033 46.7 42.7297C46.7086 43.0182 46.6561 43.3053 46.5461 43.5721C46.436 43.8389 46.2709 44.0795 46.0614 44.2781C46.5106 44.427 46.9039 44.7089 47.1891 45.0864M42.6277 41.8428V43.8093H43.839C44.1389 43.8278 44.4347 43.7328 44.6677 43.5432C44.7661 43.4508 44.8431 43.3382 44.8934 43.213C44.9438 43.0878 44.9662 42.9532 44.9591 42.8184C44.9659 42.6852 44.9433 42.5522 44.8929 42.4287C44.8426 42.3052 44.7657 42.1943 44.6677 42.1038C44.4323 41.9198 44.1371 41.8296 43.839 41.8504L42.6277 41.8428ZM45.5318 47.1315C45.642 47.032 45.7285 46.9091 45.7851 46.7719C45.8416 46.6346 45.8668 46.4865 45.8587 46.3383C45.8648 46.1911 45.8387 46.0443 45.7822 45.9082C45.7258 45.7721 45.6403 45.6499 45.5318 45.5502C45.2812 45.3397 44.9588 45.2343 44.6322 45.2562H42.6429V47.4203H44.6474C44.9729 47.4403 45.294 47.3372 45.547 47.1315" fill="#53555A"/>
<path d="M54.3555 47.8032H50.8381L50.3567 48.9233H48.4688L52.313 40.168H52.8984L56.7299 48.9233H54.8395L54.3555 47.8032ZM52.5968 43.4648L51.4615 46.3562H53.7295L52.5968 43.4648Z" fill="#53555A"/>
<path d="M65.4851 48.9289H63.7289V45.2164H59.9227V48.9289H58.1641V40.3281H59.9227V43.6275H63.7289V40.3281H65.4851V48.9289Z" fill="#53555A"/>
<path d="M5.95956 59.2056H2.44223L1.95822 60.3231H0.0703125L3.91454 51.5703H4.49992L8.32894 60.3231H6.44104L5.95956 59.2056ZM4.20089 54.8773L3.06562 57.7687H5.34631L4.20089 54.8773Z" fill="#53555A"/>
<path d="M11.5243 58.7465H15.29V60.3354H9.76562V51.7346H11.5243V58.7465Z" fill="#53555A"/>
<path d="M25.5689 59.2056H22.0516L21.5701 60.3231H19.6797L23.5239 51.5703H24.1093L27.9434 60.3332H26.0555L25.5689 59.2056ZM23.8103 54.8672L22.6775 57.7586H24.9582L23.8103 54.8672Z" fill="#53555A"/>
<path d="M36.6985 60.3351H34.9399V56.6226H31.1337V60.3351H29.375V51.7344H31.1337V55.0312H34.9399V51.7344H36.6985V60.3351Z" fill="#53555A"/>
<path d="M47.3454 51.5801V60.3354H45.5868V55.736L43.4252 58.4576H42.8499L40.6883 55.736V60.3354H38.9297V51.5801H39.5024L43.1388 56.2428L46.7727 51.5801H47.3454Z" fill="#53555A"/>
<path d="M54.6602 59.2056H51.1428L50.6613 60.3231H48.7734L52.6151 51.5703H53.2005L57.0321 60.3231H55.1442L54.6602 59.2056ZM52.9015 54.8672L51.7687 57.7687H54.0494L52.9015 54.8672Z" fill="#53555A"/>
<path d="M64.6697 52.909C65.1002 53.2995 65.4399 53.7796 65.6649 54.3155C65.89 54.8513 65.9948 55.43 65.9722 56.0108C65.9906 56.5936 65.8831 57.1735 65.657 57.7109C65.4309 58.2484 65.0916 58.7308 64.6621 59.1252C63.7904 59.931 62.6635 60.3348 61.2816 60.3365H58.4688V51.7383H61.2816C62.6737 51.7383 63.803 52.1285 64.6697 52.909ZM60.2274 53.3272V58.7476H61.2689C62.0404 58.7803 62.7936 58.5071 63.3646 57.9874C63.6308 57.7317 63.8394 57.4223 63.9766 57.0798C64.1138 56.7372 64.1764 56.3693 64.1603 56.0006C64.1802 55.6352 64.1199 55.2699 63.9838 54.9302C63.8477 54.5906 63.6389 54.2847 63.3722 54.0342C62.7888 53.5347 62.036 53.2781 61.2689 53.317L60.2274 53.3272Z" fill="#53555A"/>
<path d="M23.5008 63.4815C24.0907 63.778 24.6002 64.2127 24.9858 64.7486L24.479 65.154C24.1551 64.6709 23.7139 64.2779 23.1966 64.012C22.6794 63.746 22.103 63.6158 21.5217 63.6336C21.0305 63.6226 20.5424 63.7139 20.0883 63.9014C19.6341 64.089 19.224 64.3689 18.8837 64.7232C18.2036 65.462 17.826 66.4294 17.826 67.4335C17.826 68.4376 18.2036 69.405 18.8837 70.1437C19.225 70.4986 19.6366 70.7785 20.0921 70.9657C20.5475 71.1528 21.037 71.2431 21.5293 71.2308C22.1108 71.2498 22.6876 71.1201 23.2051 70.8541C23.7225 70.588 24.1636 70.1944 24.4866 69.7104L24.9934 70.1158C24.6078 70.6517 24.0983 71.0864 23.5084 71.3829C22.566 71.8442 21.4908 71.9572 20.4731 71.702C19.4553 71.4468 18.5607 70.8398 17.9475 69.9884C17.3343 69.137 17.042 68.0961 17.1225 67.05C17.2029 66.0038 17.6508 65.0198 18.387 64.2722C18.7938 63.8583 19.2813 63.5323 19.8191 63.3144C20.357 63.0964 20.9339 62.9912 21.5141 63.0051C22.2069 62.9988 22.891 63.1596 23.5084 63.4739" fill="#53555A"/>
<path d="M32.6065 63.7539H27.9032V66.7897H31.5649V67.4004H27.9032V71.1281H32.7636V71.7388H27.2266V63.1406H32.6065V63.7539Z" fill="#53555A"/>
<path d="M41.4725 63.141V71.8684H41.1988L35.5073 64.5753V71.7417H34.8281V63.0117H35.0891L40.7959 70.3327V63.141H41.4725Z" fill="#53555A"/>
<path d="M50.2916 63.7539H47.1367V71.7388H46.4601V63.7539H43.3203V63.1406H50.2916V63.7539Z" fill="#53555A"/>
<path d="M57.5283 63.7539H52.825V66.7897H56.4868V67.4004H52.825V71.1281H57.6829V71.7388H52.1484V63.1406H57.5283V63.7539Z" fill="#53555A"/>
<path d="M65.4084 71.7411L62.5145 67.8842H60.4188V71.7411H59.7422V63.1404H62.6615C63.3575 63.1039 64.0401 63.3424 64.562 63.8043C64.7931 64.0201 64.9755 64.2827 65.097 64.5746C65.2185 64.8666 65.2763 65.181 65.2665 65.4971C65.2856 66.0522 65.1059 66.5958 64.7597 67.0302C64.3894 67.4624 63.8757 67.7467 63.3127 67.831L66.2092 71.7411H65.4084ZM60.4188 67.2709H62.6336C62.8916 67.2881 63.1504 67.2537 63.3949 67.1697C63.6394 67.0857 63.8648 66.9539 64.0578 66.7819C64.378 66.4377 64.5561 65.985 64.5561 65.5148C64.5561 65.0447 64.378 64.5919 64.0578 64.2478C63.8644 64.0763 63.639 63.9448 63.3945 63.8609C63.1501 63.777 62.8915 63.7422 62.6336 63.7587H60.4188V67.2709Z" fill="#53555A"/>
<path d="M19.2784 75.1076H17.0535V76.7244H18.9059V77.0209H17.0535V78.9924H16.7266V74.8086H19.2784V75.1076Z" fill="#53555A"/>
<path d="M23.3987 75.3673C23.7588 75.72 23.9852 76.1868 24.0391 76.688C24.0931 77.1891 23.9713 77.6934 23.6945 78.1147C23.4177 78.5359 23.0032 78.8479 22.5218 78.9973C22.0404 79.1467 21.5221 79.1242 21.0554 78.9336C20.5888 78.7431 20.2029 78.3964 19.9636 77.9527C19.7244 77.5091 19.6467 76.9961 19.7439 76.5015C19.8411 76.0069 20.1071 75.5615 20.4964 75.2413C20.8857 74.9212 21.3742 74.7463 21.8782 74.7465C22.1606 74.7411 22.441 74.7934 22.7025 74.9001C22.9639 75.0069 23.2008 75.1658 23.3987 75.3673ZM20.5985 75.5802C20.2692 75.9395 20.0866 76.4093 20.0866 76.8967C20.0866 77.384 20.2692 77.8538 20.5985 78.2131C20.767 78.3818 20.9671 78.5156 21.1873 78.6068C21.4076 78.6981 21.6436 78.7451 21.882 78.7451C22.1204 78.7451 22.3565 78.6981 22.5767 78.6068C22.797 78.5156 22.997 78.3818 23.1655 78.2131C23.4968 77.8553 23.6808 77.3856 23.6808 76.8979C23.6808 76.4103 23.4968 75.9406 23.1655 75.5827C22.8253 75.2429 22.3641 75.052 21.8833 75.052C21.4024 75.052 20.9412 75.2429 20.601 75.5827" fill="#53555A"/>
<path d="M27.7495 78.9921L26.3431 77.1143H25.3294V78.9921H25V74.8083H26.4267C26.7651 74.7914 27.0968 74.9068 27.3516 75.1301C27.464 75.2357 27.5526 75.3639 27.6116 75.5063C27.6705 75.6488 27.6986 75.8021 27.6937 75.9562C27.7 76.2259 27.6102 76.4891 27.4403 76.6987C27.2619 76.9114 27.0109 77.0505 26.7359 77.0889L28.1499 78.9921H27.7495ZM25.3244 76.8178H26.4014C26.5267 76.8255 26.6523 76.8084 26.771 76.7675C26.8897 76.7267 26.9992 76.6628 27.0932 76.5796C27.2512 76.4125 27.3393 76.1913 27.3393 75.9613C27.3393 75.7313 27.2512 75.51 27.0932 75.3429C26.9992 75.2597 26.8897 75.1959 26.771 75.155C26.6523 75.1141 26.5267 75.097 26.4014 75.1047H25.3244V76.8178Z" fill="#53555A"/>
<path d="M33.4736 74.9631C33.7607 75.1056 34.0087 75.3162 34.1958 75.5764L33.9424 75.7715C33.7852 75.542 33.5729 75.3556 33.325 75.2294C33.077 75.1033 32.8014 75.0413 32.5233 75.0493C32.284 75.0426 32.046 75.0863 31.8246 75.1775C31.6033 75.2688 31.4036 75.4055 31.2385 75.5789C31.0706 75.7532 30.9392 75.9594 30.8522 76.1853C30.7652 76.4112 30.7242 76.6522 30.7317 76.8941C30.7244 77.1376 30.7654 77.38 30.8524 77.6075C30.9394 77.835 31.0707 78.043 31.2385 78.2195C31.4057 78.3936 31.6076 78.5307 31.8311 78.6219C32.0546 78.7131 32.2947 78.7565 32.536 78.7491C32.8465 78.7531 33.1528 78.6772 33.4255 78.5286C33.6849 78.3864 33.9031 78.1795 34.059 77.928V77.2362H32.5183V76.9448H34.3884V78.0091C34.2098 78.3365 33.9417 78.6063 33.6155 78.7871C33.2803 78.974 32.9021 79.0701 32.5183 79.0658C32.2356 79.0721 31.9546 79.02 31.693 78.9127C31.4314 78.8055 31.1947 78.6454 30.9978 78.4425C30.6941 78.1418 30.4868 77.7576 30.4021 77.3387C30.3174 76.9198 30.3592 76.4852 30.5222 76.0902C30.6853 75.6952 30.9621 75.3576 31.3175 75.1203C31.673 74.8831 32.0909 74.7569 32.5183 74.7579C32.8477 74.7554 33.1731 74.83 33.4686 74.9758" fill="#53555A"/>
<path d="M35.7357 74.8086H35.4062V78.9924H35.7357V74.8086Z" fill="#53555A"/>
<path d="M39.5231 75.1076H37.2982V76.7244H39.1506V77.0209H37.2982V78.9924H36.9688V74.8086H39.5231V75.1076Z" fill="#53555A"/>
<path d="M43.185 75.1076H41.6518V78.9924H41.3224V75.1076H39.7969V74.8086H43.185V75.1076Z" fill="#53555A"/>
<path d="M46.5865 75.1076H44.2982V76.5825H46.0797V76.8815H44.2982V78.6934H46.66V78.9924H43.9688V74.8086H46.5865V75.1076Z" fill="#53555A"/>
<path d="M50.3954 75.3892C50.598 75.5827 50.7573 75.8168 50.863 76.0762C50.9687 76.3357 51.0183 76.6145 51.0087 76.8945C51.0172 77.174 50.9677 77.4522 50.8635 77.7117C50.7593 77.9712 50.6025 78.2063 50.403 78.4022C50.1781 78.6071 49.9145 78.7648 49.6277 78.8662C49.3409 78.9676 49.0367 79.0106 48.733 78.9927H47.5547V74.8089H48.728C49.0313 74.7905 49.3352 74.8324 49.6222 74.932C49.9092 75.0316 50.1738 75.1869 50.4005 75.3892M47.8664 75.1079V78.6937H48.728C48.9865 78.7094 49.2455 78.6725 49.4894 78.5854C49.7333 78.4983 49.957 78.3627 50.1471 78.1868C50.3157 78.0187 50.4477 77.8176 50.5349 77.5961C50.6221 77.3746 50.6626 77.1374 50.6539 76.8995C50.6638 76.6619 50.6239 76.4247 50.5366 76.2034C50.4493 75.9822 50.3166 75.7816 50.1471 75.6147C49.9565 75.4396 49.7327 75.3045 49.4889 75.2174C49.2452 75.1303 48.9864 75.0931 48.728 75.1079H47.8664Z" fill="#53555A"/>
<path d="M55.1919 74.8094V79.0566H55.0601L52.2904 75.5089V78.9932H51.9609V74.7461H52.0876L54.8625 78.3065V74.8094H55.1919Z" fill="#53555A"/>
<path d="M59.0683 75.1076H56.7826V76.5825H58.564V76.8815H56.7826V78.6934H59.1443V78.9924H56.4531V74.8086H59.0683V75.1076Z" fill="#53555A"/>
<path d="M61.9203 74.9184C62.1327 75.0344 62.3136 75.2006 62.4473 75.4024L62.2066 75.5849C62.0984 75.4151 61.9483 75.276 61.7708 75.1811C61.5932 75.0861 61.3943 75.0384 61.193 75.0426C60.9748 75.0376 60.7602 75.0985 60.5772 75.2174C60.4931 75.2772 60.4257 75.3575 60.3814 75.4506C60.337 75.5437 60.3172 75.6466 60.3238 75.7496C60.3224 75.8466 60.3396 75.9429 60.3744 76.0334C60.4116 76.1193 60.47 76.1943 60.5442 76.2513C60.6135 76.3087 60.6872 76.3603 60.7647 76.4059C60.8331 76.4465 60.9345 76.4971 61.0663 76.5605L61.5351 76.7886C61.8066 76.9061 62.054 77.0727 62.2649 77.2802C62.4259 77.4598 62.5096 77.6956 62.498 77.9365C62.5023 78.0897 62.4708 78.2418 62.4062 78.3808C62.3415 78.5198 62.2454 78.6418 62.1255 78.7373C61.8634 78.9478 61.534 79.0567 61.198 79.0439C60.8932 79.0484 60.5934 78.9657 60.3339 78.8057C60.0701 78.6463 59.8506 78.4232 59.6953 78.157L59.9487 77.9745C60.0719 78.2036 60.2547 78.3951 60.4777 78.5289C60.7007 78.6627 60.9557 78.7338 61.2158 78.7347C61.4616 78.7448 61.7033 78.6696 61.9 78.5219C61.9824 78.4537 62.0481 78.3676 62.0921 78.2701C62.136 78.1725 62.157 78.0662 62.1534 77.9593C62.1586 77.8708 62.1456 77.7821 62.115 77.6989C62.0845 77.6156 62.0372 77.5395 61.976 77.4753C61.7974 77.3206 61.5966 77.1933 61.3805 77.0977L60.9066 76.8697C60.6552 76.7611 60.4232 76.6122 60.2199 76.4287C60.1358 76.3451 60.0699 76.2449 60.0262 76.1346C59.9826 76.0243 59.9623 75.9061 59.9665 75.7876C59.9602 75.6419 59.9889 75.4969 60.0501 75.3646C60.1114 75.2324 60.2035 75.1167 60.3187 75.0274C60.5662 74.8381 60.8713 74.7396 61.1828 74.7486C61.437 74.7455 61.6875 74.8084 61.9101 74.9311" fill="#53555A"/>
<path d="M65.4513 74.9157C65.6686 75.0371 65.8517 75.2114 65.9835 75.4225L65.73 75.605C65.6213 75.4357 65.4711 75.2971 65.2937 75.2022C65.1163 75.1073 64.9176 75.0593 64.7164 75.0627C64.4982 75.0577 64.2836 75.1186 64.1006 75.2376C64.0166 75.2973 63.9492 75.3776 63.9048 75.4707C63.8605 75.5639 63.8406 75.6668 63.8472 75.7697C63.8447 75.8668 63.862 75.9633 63.8979 76.0535C63.934 76.1393 63.9916 76.2144 64.0651 76.2715C64.1352 76.3289 64.2098 76.3805 64.2881 76.426C64.3566 76.4666 64.4579 76.5173 64.5897 76.5806L65.056 76.8087C65.3282 76.9263 65.5764 77.0929 65.7883 77.3003C65.9474 77.4809 66.0301 77.7162 66.0189 77.9566C66.0231 78.1096 65.9919 78.2614 65.9277 78.4004C65.8635 78.5393 65.7681 78.6615 65.6489 78.7574C65.3866 78.9676 65.0574 79.0764 64.7215 79.064C64.4166 79.0691 64.1166 78.9864 63.8573 78.8258C63.5936 78.6664 63.374 78.4434 63.2188 78.1771L63.4722 77.9947C63.5951 78.2239 63.7778 78.4156 64.0009 78.5494C64.224 78.6832 64.4791 78.7542 64.7392 78.7549C64.9858 78.7649 65.2283 78.6897 65.4259 78.542C65.5132 78.4733 65.5828 78.3849 65.6291 78.284C65.6753 78.1831 65.6969 78.0726 65.692 77.9617C65.6967 77.8732 65.6833 77.7847 65.6528 77.7016C65.6224 77.6184 65.5753 77.5422 65.5146 77.4777C65.3346 77.3236 65.1331 77.1964 64.9166 77.1001L64.4427 76.872C64.1924 76.7629 63.9613 76.614 63.7585 76.4311C63.6744 76.3475 63.6085 76.2473 63.5649 76.137C63.5213 76.0267 63.5009 75.9085 63.5051 75.79C63.4988 75.6443 63.5275 75.4993 63.5888 75.367C63.6501 75.2348 63.7422 75.1191 63.8573 75.0298C64.1045 74.8397 64.4099 74.7412 64.7215 74.751C64.9749 74.7416 65.2265 74.7983 65.4513 74.9157Z" fill="#53555A"/>
<path d="M19.8923 84.9837H17.7003L17.2796 85.9796H16.9375L18.7316 81.7324H18.8659L20.6398 85.9796H20.3028L19.8923 84.9837ZM17.8092 84.6872H19.7554L18.7849 82.3229L17.8092 84.6872Z" fill="#53555A"/>
<path d="M24.7648 81.7958V86.0429H24.6305L21.8607 82.4952V85.9796H21.5312V81.7324H21.658L24.4353 85.2954V81.7958H24.7648Z" fill="#53555A"/>
<path d="M28.864 82.3775C29.252 82.7831 29.4685 83.3227 29.4685 83.884C29.4685 84.4453 29.252 84.9849 28.864 85.3905C28.639 85.5953 28.3754 85.7531 28.0886 85.8545C27.8018 85.9559 27.4976 85.9989 27.194 85.981H26.0156V81.7972H27.1838C27.4871 81.7788 27.791 81.8207 28.0781 81.9202C28.3651 82.0198 28.6296 82.1752 28.8563 82.3775M26.3349 82.0962V85.682H27.1838C27.4423 85.6971 27.7011 85.66 27.9449 85.5729C28.1888 85.4858 28.4125 85.3505 28.6029 85.1751C28.7716 85.0066 28.9037 84.805 28.9909 84.5831C29.0781 84.3611 29.1185 84.1236 29.1098 83.8853C29.1197 83.6476 29.0797 83.4105 28.9924 83.1892C28.9052 82.9679 28.7725 82.7674 28.6029 82.6005C28.412 82.4258 28.1882 82.291 27.9445 82.204C27.7008 82.1169 27.4422 82.0794 27.1838 82.0937L26.3349 82.0962Z" fill="#53555A"/>
<path d="M35.0379 81.9618C35.3246 82.1084 35.5721 82.3212 35.7602 82.5826L35.5068 82.7803C35.3499 82.5448 35.1358 82.3531 34.8844 82.2232C34.633 82.0933 34.3527 82.0295 34.0699 82.0378C33.8308 82.0325 33.5932 82.0768 33.372 82.168C33.1509 82.2591 32.9511 82.3951 32.7851 82.5674C32.6168 82.7415 32.4853 82.9476 32.3982 83.1735C32.3111 83.3995 32.2704 83.6406 32.2783 83.8826C32.2708 84.1257 32.3117 84.3679 32.3987 84.595C32.4857 84.8221 32.6171 85.0296 32.7851 85.2054C32.9511 85.3784 33.1513 85.5148 33.3729 85.606C33.5946 85.6972 33.8328 85.7411 34.0725 85.735C34.3549 85.7444 34.635 85.6816 34.8864 85.5525C35.1378 85.4235 35.3522 85.2325 35.5093 84.9976L35.7627 85.1953C35.5732 85.4556 35.3249 85.6675 35.0379 85.8136C34.7095 85.9775 34.3447 86.0548 33.978 86.0382C33.6114 86.0215 33.255 85.9114 32.9429 85.7183C32.6307 85.5253 32.373 85.2556 32.1944 84.935C32.0157 84.6144 31.9219 84.2534 31.9219 83.8864C31.9219 83.5194 32.0157 83.1584 32.1944 82.8378C32.373 82.5172 32.6307 82.2475 32.9429 82.0545C33.255 81.8614 33.6114 81.7513 33.978 81.7346C34.3447 81.718 34.7095 81.7953 35.0379 81.9592" fill="#53555A"/>
<path d="M39.4889 85.9805L38.0774 84.1027H37.0638V85.9805H36.7344V81.7967H38.1509C38.4907 81.779 38.8237 81.8955 39.0784 82.121C39.1905 82.2261 39.2788 82.354 39.3373 82.4961C39.3959 82.6381 39.4234 82.7911 39.418 82.9446C39.4285 83.2185 39.3364 83.4865 39.1597 83.696C38.983 83.9056 38.7344 84.0416 38.4626 84.0774L39.8767 85.9805H39.4889ZM37.0638 83.8062H38.1408C38.2665 83.8141 38.3926 83.7971 38.5117 83.7563C38.6308 83.7154 38.7408 83.6514 38.8351 83.568C38.9931 83.4014 39.0811 83.1805 39.0811 82.951C39.0811 82.7214 38.9931 82.5005 38.8351 82.3339C38.7411 82.2499 38.6313 82.1856 38.512 82.1446C38.3928 82.1037 38.2666 82.0871 38.1408 82.0957H37.0638V83.8062Z" fill="#53555A"/>
<path d="M43.2558 82.0959H40.9701V83.5707H42.7515V83.8698H40.9701V85.6817H43.3318V85.9807H40.6406V81.7969H43.2558V82.0959Z" fill="#53555A"/>
<path d="M46.7907 84.9837H44.5962L44.178 85.9796H43.8359L45.6301 81.7324H45.7619L47.5509 85.9796H47.2012L46.7907 84.9837ZM44.7178 84.6872H46.664L45.6934 82.3229L44.7178 84.6872Z" fill="#53555A"/>
<path d="M51.3516 82.0959H49.8159V85.9807H49.4865V82.0959H47.9609V81.7969H51.3516V82.0959Z" fill="#53555A"/>
<path d="M52.4622 81.7969H52.1328V85.9807H52.4622V81.7969Z" fill="#53555A"/>
<path d="M57.038 81.7969L55.2515 86.044H55.1197L53.3281 81.7969H53.6804L55.1831 85.408L56.6858 81.7969H57.038Z" fill="#53555A"/>
<path d="M58.2513 81.7969H57.9219V85.9807H58.2513V81.7969Z" fill="#53555A"/>
<path d="M62.4141 82.0959H60.8784V85.9807H60.5515V82.0959H59.0234V81.7969H62.4141V82.0959Z" fill="#53555A"/>
<path d="M64.6799 84.2043V85.9807H64.3505V84.2043L62.8984 81.7969H63.2608L64.5152 83.8951L65.7746 81.7969H66.1345L64.6799 84.2043Z" fill="#53555A"/>
<path d="M85.0676 48.9283H82.8426C82.4752 50.3296 81.5502 51.062 79.9766 51.1558V50.246C81.2436 50.246 81.8771 49.5542 81.8771 47.9653V42.7679H82.83V47.9805H85.0676V48.9283ZM82.8426 41.7897H81.8771V40.6367H82.8426V41.7897Z" fill="#545758"/>
<path d="M93.7972 47.5496V48.918H84.3906V47.9804H92.6442C92.6569 47.8157 92.6695 47.6535 92.6695 47.4913C92.6695 46.4447 92.4161 45.6034 91.9245 44.98C91.3383 44.2468 90.4691 43.8802 89.3169 43.8802H86.5294C87.0185 42.9958 87.7103 41.7617 88.6048 40.1602H89.73L88.1158 42.9477H89.3245C90.6955 42.9477 91.7953 43.3658 92.6188 44.2147C93.4424 45.0636 93.8149 46.1685 93.8149 47.5547" fill="#545758"/>
<path d="M99.9113 48.9286H97.5749C97.3215 50.3248 96.394 51.0597 94.8203 51.1535V50.2463C96.0874 50.2463 96.7209 49.5519 96.7209 47.9504V42.7656H97.6712V47.9783H99.9113V48.9286Z" fill="#545758"/>
<path d="M107.287 47.0416C107.319 47.831 107.058 48.6043 106.555 49.2133C106.301 49.5134 105.982 49.7514 105.622 49.9091C105.261 50.0668 104.87 50.14 104.477 50.1231C103.433 50.1231 102.645 49.7277 102.128 48.9422H99.5078V47.9792H101.735C101.65 47.6749 101.609 47.36 101.614 47.0441C101.582 46.2347 101.858 45.4433 102.387 44.8293C102.651 44.5385 102.977 44.3098 103.341 44.1595C103.705 44.0093 104.097 43.9412 104.49 43.9601C104.882 43.9416 105.273 44.0112 105.635 44.1638C105.997 44.3164 106.32 44.5482 106.58 44.842C107.078 45.4639 107.329 46.2466 107.287 47.0416ZM106.188 46.9453C106.21 46.4329 106.088 45.9244 105.835 45.4781C105.695 45.2634 105.501 45.0891 105.273 44.9727C105.044 44.8562 104.789 44.8015 104.533 44.8141C104.258 44.7988 103.984 44.856 103.738 44.9801C103.492 45.1042 103.283 45.2908 103.132 45.5211C102.851 45.9964 102.715 46.5434 102.741 47.0948C102.719 47.621 102.855 48.1417 103.132 48.5899C103.281 48.8063 103.482 48.9809 103.718 49.0971C103.953 49.2133 104.215 49.2673 104.477 49.2539C105.618 49.2539 106.188 48.4801 106.188 46.9326" fill="#545758"/>
<path d="M86.4793 56.2109V57.4476H83.2356C82.2042 57.4476 81.4972 58.1647 81.4972 59.3051C81.489 59.5335 81.53 59.761 81.6175 59.9722C81.7049 60.1834 81.8368 60.3733 82.0041 60.529C82.3403 60.8396 82.783 61.0092 83.2407 61.0029H84.8828V62.5893H83.7982C82.668 62.5893 81.7709 62.3358 81.1095 61.8164C80.362 61.2208 79.9844 60.3643 79.9844 59.2392C79.9844 58.114 80.2961 57.2575 80.9195 56.6721C81.477 56.1425 82.2347 55.884 83.1723 55.884H84.8422C84.5888 54.3788 83.7982 53.7529 82.4678 53.7529C82.1017 53.7354 81.7372 53.8112 81.4085 53.9733V52.6683C81.778 52.512 82.1756 52.4335 82.5768 52.4377C83.9046 52.4377 84.9385 52.8304 85.6557 53.7807C86.1971 54.4747 86.4889 55.3308 86.4843 56.2109" fill="#545758"/>
<path d="M91.8869 60.3538H90.113C89.797 60.3739 89.4806 60.3205 89.1887 60.1978C88.8967 60.0752 88.6372 59.8865 88.4304 59.6467C88.0404 59.1408 87.8477 58.5104 87.8881 57.8729V51.6035H89.3933V57.2774C89.3933 57.9413 89.5429 58.3772 89.8292 58.5799C90.0319 58.7294 90.4272 58.8105 90.9949 58.8105H91.892L91.8869 60.3538Z" fill="#545758"/>
<path d="M94.4144 58.8049H91.4141V60.3533H94.4144V58.8049Z" fill="#545758"/>
<path d="M97.1019 58.8047H94.1016V60.353H97.1019V58.8047Z" fill="#545758"/>
<path d="M99.7894 58.8047H96.7891V60.353H99.7894V58.8047Z" fill="#545758"/>
<path d="M102.485 58.8047H99.4844V60.353H102.485V58.8047Z" fill="#545758"/>
<path d="M105.172 58.8047H102.172V60.353H105.172V58.8047Z" fill="#545758"/>
<path d="M107.86 58.8047H104.859V60.353H107.86V58.8047Z" fill="#545758"/>
<path d="M110.547 58.8047H107.547V60.353H110.547V58.8047Z" fill="#545758"/>
<path d="M113.243 58.8047H110.242V60.353H113.243V58.8047Z" fill="#545758"/>
<path d="M115.93 58.8047H112.93V60.353H115.93V58.8047Z" fill="#545758"/>
<path d="M118.618 58.8047H115.617V60.353H118.618V58.8047Z" fill="#545758"/>
<path d="M121.313 58.8047H118.312V60.353H121.313V58.8047Z" fill="#545758"/>
<path d="M127.256 60.3543H120.984V58.806H122.398C122.578 58.8269 122.76 58.7943 122.922 58.7123C123.083 58.6302 123.217 58.5024 123.306 58.3448C123.435 58.0173 123.491 57.665 123.468 57.3134V54.1914H124.976V57.2323C124.976 58.0331 124.867 58.5501 124.649 58.806H127.256V60.3543ZM124.976 63.3395H123.48V61.819H124.973L124.976 63.3395Z" fill="#545758"/>
<path d="M138.238 60.3537H126.875V58.8054H127.99C128.763 58.8054 129.143 58.2757 129.143 57.2038V54.842H130.663V56.7021C131.844 55.0726 133.352 54.168 134.804 54.168C137.138 54.168 138.306 55.7695 138.306 58.9447C138.306 59.3958 138.278 59.857 138.238 60.3588M136.733 58.8104L136.758 58.3771C136.758 56.6235 135.945 55.5262 134.655 55.5262C133.134 55.5262 131.517 56.9377 130.676 58.8206L136.733 58.8104Z" fill="#545758"/>
<path d="M89.1989 71.7657H80.3828V70.2173H85.299C85.299 68.4434 84.6072 67.4045 83.2362 67.108C82.7844 67.016 82.3237 66.9743 81.8627 66.9838V65.5977C82.623 65.5977 83.0867 65.6129 83.2768 65.6255C83.5557 65.6542 83.8299 65.7181 84.0927 65.8156C85.9105 66.4271 86.8245 67.8944 86.8346 70.2173H89.1989V71.7657Z" fill="#545758"/>
<path d="M97.4278 71.7665H95.4867C95.2063 72.1517 94.8347 72.4613 94.4053 72.6678C93.976 72.8744 93.5021 72.9713 93.0261 72.9499C92.5546 72.97 92.0855 72.8724 91.6612 72.6658C91.2369 72.4591 90.8708 72.1501 90.5959 71.7665H88.5078V70.2181H89.9751C89.9624 70.069 89.9573 69.9193 89.9599 69.7696C89.946 69.3586 90.0134 68.949 90.1582 68.5642C90.3031 68.1793 90.5224 67.8268 90.8037 67.5269C91.0912 67.2346 91.4363 67.0053 91.8171 66.8535C92.198 66.7016 92.6062 66.6307 93.016 66.6451C93.4271 66.6279 93.837 66.7003 94.2172 66.8574C94.5975 67.0145 94.939 67.2525 95.2181 67.5548C95.7819 68.1732 96.0835 68.9863 96.0594 69.8228V70.2181H97.4177L97.4278 71.7665ZM94.5086 69.8102C94.5214 69.37 94.3926 68.9374 94.1411 68.576C94.0068 68.3977 93.8319 68.2538 93.631 68.1564C93.43 68.0591 93.2088 68.0109 92.9856 68.016C92.7715 68.0085 92.5588 68.0544 92.3669 68.1495C92.1749 68.2446 92.0096 68.386 91.8858 68.5608C91.6429 68.9104 91.5194 69.329 91.5335 69.7544C91.5335 70.7326 92.129 71.5283 93.0692 71.5283C93.2775 71.5377 93.485 71.4966 93.6738 71.4083C93.8627 71.32 94.0274 71.1873 94.1538 71.0215C94.4004 70.6669 94.5249 70.2417 94.5086 69.8102Z" fill="#545758"/>
<path d="M106.478 70.8169V71.7672H96.9141V70.2188H104.833C104.857 69.439 104.608 68.6753 104.129 68.0598C103.848 67.7163 103.49 67.4438 103.084 67.2642C102.678 67.0846 102.235 67.003 101.792 67.0259C101.399 67.0333 101.011 67.1194 100.652 67.2793C100.184 67.467 99.7655 67.7591 99.4279 68.1333C99.2784 67.8495 99.0351 67.4541 98.6955 66.9397C99.1207 66.5371 99.6119 66.2105 100.148 65.9742C100.855 65.671 101.627 65.546 102.394 65.6101C103.162 65.6741 103.902 65.9253 104.549 66.3417C105.839 67.1982 106.478 68.6781 106.478 70.8118" fill="#545758"/>
<path d="M110.607 64.6723H108.258V64.0489H108.8C108.744 63.8944 108.703 63.7349 108.679 63.5725C108.673 63.4299 108.697 63.2877 108.748 63.1544C108.799 63.0212 108.877 62.8996 108.976 62.797C109.075 62.6943 109.194 62.6127 109.325 62.557C109.456 62.5012 109.598 62.4726 109.74 62.4727C109.926 62.4742 110.108 62.5322 110.26 62.639C110.413 62.7458 110.529 62.8963 110.594 63.0707L110.105 63.3241C110.093 63.2349 110.046 63.154 109.975 63.0983C109.904 63.0426 109.815 63.0164 109.725 63.0251C109.597 63.0323 109.477 63.0894 109.391 63.1842C109.305 63.279 109.259 63.4039 109.264 63.5319C109.255 63.6315 109.274 63.7316 109.319 63.8211C109.364 63.9105 109.432 63.9858 109.517 64.0387H110.617L110.607 64.6723ZM114.33 63.0074V69.6391C114.33 70.9289 113.405 71.7703 111.937 71.7703H107.883V70.2219H109.961L108.63 65.3286H110.237L111.552 70.2219C111.718 70.2372 111.886 70.2186 112.044 70.1672C112.203 70.1158 112.349 70.0327 112.475 69.9229C112.728 69.6695 112.855 69.2311 112.855 68.6178V63.0074H114.33Z" fill="#545758"/>
<path d="M117.258 62.9922H115.75V71.7678H117.258V62.9922Z" fill="#545758"/>
<path d="M81.3583 83.2536C81.3583 82.5795 81.6269 82.1892 82.1185 82.1892C82.2038 82.1812 82.2898 82.1902 82.3716 82.2156C82.4533 82.241 82.5293 82.2823 82.595 82.3372C82.6607 82.3921 82.715 82.4594 82.7545 82.5354C82.7941 82.6113 82.8182 82.6944 82.8255 82.7797L83.3019 82.729C83.1955 82.2222 82.7419 81.875 82.1109 81.875C81.3507 81.875 80.8793 82.4477 80.8793 83.2586C80.8701 83.5248 80.936 83.7883 81.0694 84.0189C80.7232 84.1305 80.4284 84.3626 80.2387 84.673C80.049 84.9835 79.9769 85.3516 80.0355 85.7107C80.094 86.0697 80.2794 86.3959 80.5579 86.63C80.8364 86.864 81.1896 86.9904 81.5534 86.9863H82.3466V86.52H81.5534C80.8794 86.52 80.4891 86.1171 80.4891 85.5064C80.4769 85.362 80.4959 85.2167 80.5446 85.0803C80.5933 84.9439 80.6707 84.8195 80.7716 84.7155C80.8724 84.6116 80.9944 84.5304 81.1293 84.4775C81.2641 84.4247 81.4088 84.4013 81.5534 84.4091H83.3095V83.9707H81.6168C81.4516 83.7634 81.3622 83.5059 81.3634 83.2409" fill="#545758"/>
<path d="M84.5972 81.8809H84.1562V85.9532H84.5972V81.8809Z" fill="#545758"/>
<path d="M98.8757 86.377H98.4297V86.9116H98.8757V86.377Z" fill="#545758"/>
<path d="M98.4421 84.6508C98.4559 84.8572 98.4239 85.064 98.3483 85.2565C98.2934 85.3466 98.2132 85.4187 98.1177 85.4638C98.0222 85.5088 97.9156 85.5248 97.8111 85.5099H97.5045H87.9231C87.8546 83.8931 87.1628 83.0898 85.8274 83.0898V83.5029H85.9972C86.2307 83.5038 86.4601 83.5643 86.6636 83.6787C86.8672 83.7932 87.0382 83.9577 87.1603 84.1567C87.3863 84.5706 87.4933 85.0389 87.4695 85.5099H85.1406V85.9508H97.9581C98.5739 85.9508 98.883 85.5809 98.883 84.846V83.0924H98.4421V84.6508Z" fill="#545758"/>
<path d="M100.972 86.546C101.104 86.546 101.18 86.622 101.213 86.7639L101.466 86.736C101.452 86.6186 101.393 86.5111 101.301 86.4364C101.21 86.3617 101.093 86.3256 100.975 86.3356C100.901 86.3326 100.827 86.3457 100.759 86.3742C100.691 86.4026 100.629 86.4457 100.579 86.5003C100.499 86.6122 100.459 86.748 100.465 86.8855C100.464 86.9608 100.477 87.0355 100.503 87.106H100.25V87.3594H101.456V87.106H100.775C100.732 87.0406 100.711 86.9635 100.714 86.8855C100.714 86.66 100.8 86.546 100.967 86.546" fill="#545758"/>
<path d="M101.639 84.6506C101.655 84.857 101.622 85.0641 101.546 85.2563C101.489 85.3451 101.409 85.416 101.314 85.4609C101.219 85.5058 101.113 85.5227 101.008 85.5097H100.821L100.028 82.3547H99.5513L100.362 85.5097H99.3359V85.943H101.155C101.771 85.943 102.08 85.573 102.08 84.8381V81.8809H101.639V84.6506Z" fill="#545758"/>
<path d="M103.363 81.8806H102.922V85.9529H103.363V81.8806Z" fill="#545758"/>
<path d="M105.295 83.0781C104.578 83.0781 104.094 83.6584 104.094 84.4643C104.094 85.2701 104.601 85.8606 105.295 85.8606C105.44 85.8762 105.586 85.851 105.717 85.7879C105.848 85.7247 105.959 85.6261 106.037 85.5033C106.025 86.2128 105.731 86.5676 105.15 86.5676V86.9882C106.075 86.9376 106.478 86.4459 106.478 85.4196V84.482C106.478 83.6635 105.984 83.0781 105.295 83.0781ZM105.295 85.4652C104.836 85.4652 104.522 85.0294 104.522 84.4516C104.522 83.8738 104.803 83.4633 105.262 83.4633C105.721 83.4633 106.042 83.9093 106.042 84.4769C106.042 85.0446 105.754 85.4602 105.295 85.4602" fill="#545758"/>
<path d="M82.2507 74.5898H81.8047V75.1245H82.2507V74.5898Z" fill="#555858"/>
<path d="M81.4304 74.5898H80.9844V75.1245H81.4304V74.5898Z" fill="#555858"/>
<path d="M85.7819 79.459H85.3359V79.9937H85.7819V79.459Z" fill="#555858"/>
<path d="M89.0522 75.5716V76.0252C89.4899 76.1618 89.8712 76.4372 90.1382 76.8099C90.4053 77.1826 90.5436 77.6322 90.5321 78.0905C90.5329 78.261 90.5142 78.4311 90.4764 78.5973H89.5464C89.748 78.3537 89.8527 78.0442 89.8403 77.7282C89.8403 76.9933 89.4019 76.5093 88.7279 76.5093C88.0538 76.5093 87.5875 77.0363 87.5875 77.7358C87.5742 78.0502 87.675 78.3589 87.8713 78.605H86.9033H85.6667C85.7544 78.3941 85.7951 78.1667 85.7858 77.9385V76.1849H85.3448V77.7408C85.3596 77.9488 85.3275 78.1575 85.2511 78.3515C85.1956 78.4406 85.1157 78.5118 85.0209 78.5567C84.9261 78.6017 84.8204 78.6184 84.7164 78.605H83.353C82.8462 78.605 82.5472 78.2324 82.5472 77.5913V75.564H81.2092C80.4946 75.564 80.0156 76.1925 80.0156 77.0845C80.0156 77.9207 80.4946 78.5847 81.1357 78.5847C81.3257 78.6025 81.5169 78.5662 81.6873 78.4802C81.8576 78.3941 82.0002 78.2617 82.0987 78.0981C82.1549 78.3707 82.3076 78.6138 82.5287 78.7828C82.7499 78.9518 83.0246 79.0353 83.3024 79.018H90.8666C90.9283 78.7349 90.9597 78.4461 90.9604 78.1564C90.9765 77.5922 90.821 77.0364 90.5144 76.5625C90.1634 76.0611 89.6449 75.7016 89.0522 75.5488M82.0911 77.0034C82.0911 77.8295 81.8098 78.2375 81.2801 78.2375C80.7911 78.2375 80.4566 77.7028 80.4566 77.0592C80.4566 76.4155 80.7961 75.8884 81.2928 75.8884H82.0911V77.0034ZM88.7228 78.5771C88.2945 78.5771 88.0462 78.2324 88.0462 77.7408C88.0462 77.1783 88.2996 76.8539 88.7456 76.8539C89.1561 76.8539 89.3893 77.1428 89.3893 77.6825C89.3893 78.2831 89.1688 78.5771 88.7228 78.5771Z" fill="#555858"/>
<path d="M106.035 74.9648V77.7371C106.049 77.9425 106.018 78.1484 105.943 78.3403C105.889 78.4307 105.809 78.5029 105.713 78.548C105.617 78.593 105.511 78.6089 105.406 78.5937H105.11H103.876C103.963 78.3828 104.004 78.1554 103.995 77.9272V74.9648H103.554V77.7371C103.568 77.9451 103.536 78.1537 103.46 78.3479C103.404 78.4373 103.324 78.5088 103.229 78.5538C103.133 78.5987 103.027 78.6152 102.923 78.6013H102.654H100.049C100.088 78.4576 100.108 78.3093 100.107 78.1603C100.122 77.7931 100.003 77.4331 99.7729 77.1467C99.6525 77.0102 99.5031 76.9025 99.3355 76.8314C99.168 76.7604 98.9867 76.7278 98.8049 76.7362C98.6224 76.7273 98.4402 76.7591 98.2715 76.8292C98.1028 76.8993 97.9517 77.006 97.8292 77.1416C97.5925 77.4255 97.4673 77.7858 97.477 78.1553C97.4761 78.3021 97.4931 78.4485 97.5277 78.5911H96.7827H94.0154V77.4229C94.0154 76.5917 93.5796 76.1559 92.8827 76.1559C92.7101 76.1535 92.5392 76.1896 92.3823 76.2614C92.2253 76.3333 92.0864 76.4392 91.9755 76.5715C91.7351 76.8535 91.6078 77.2147 91.6182 77.5851C91.6049 77.9529 91.7256 78.3131 91.9577 78.5987C92.0616 78.7279 92.1938 78.8315 92.3441 78.9013C92.4943 78.9712 92.6587 79.0055 92.8244 79.0017H93.5137C93.4825 79.1783 93.3882 79.3376 93.2484 79.45C93.1086 79.5623 92.9327 79.62 92.7535 79.6124H92.6977V80.033C93.4225 79.99 93.8507 79.6504 93.9774 79.0017H97.7254C97.8477 79.1712 98.0086 79.3093 98.1947 79.4045C98.3808 79.4997 98.5869 79.5494 98.796 79.5494C99.0051 79.5494 99.2112 79.4997 99.3973 79.4045C99.5835 79.3093 99.7443 79.1712 99.8667 79.0017H105.563C106.179 79.0017 106.486 78.6291 106.486 77.8943V74.9648H106.035ZM93.5618 78.5987H92.832C92.7109 78.5992 92.5921 78.5661 92.4887 78.503C92.3854 78.4399 92.3015 78.3494 92.2466 78.2414C92.1265 78.0375 92.066 77.804 92.0718 77.5674C92.0704 77.3341 92.1402 77.106 92.272 76.9136C92.3324 76.812 92.418 76.7278 92.5206 76.6692C92.6232 76.6106 92.7392 76.5795 92.8573 76.5791C92.9497 76.5737 93.0422 76.5877 93.1289 76.6201C93.2156 76.6525 93.2946 76.7026 93.3609 76.7672C93.4272 76.8318 93.4793 76.9095 93.5139 76.9953C93.5485 77.0812 93.5648 77.1733 93.5618 77.2658V78.5987ZM98.7973 79.1917C98.6756 79.1976 98.5545 79.1723 98.4454 79.1181C98.3363 79.064 98.2428 78.9829 98.1739 78.8826C98.0479 78.6746 97.987 78.4336 97.999 78.1908C97.9845 77.9356 98.0453 77.6818 98.1739 77.4609C98.2431 77.3531 98.3396 77.2655 98.4534 77.2068C98.5673 77.148 98.6946 77.1203 98.8226 77.1264C98.9413 77.1187 99.0599 77.1434 99.1657 77.1978C99.2715 77.2523 99.3605 77.3345 99.4232 77.4356C99.5444 77.6407 99.6025 77.8768 99.5905 78.1147C99.5905 78.8327 99.3261 79.1917 98.7973 79.1917Z" fill="#555858"/>
</svg>
