<svg width="20" height="21" viewBox="0 0 20 21" fill="none" xmlns="http://www.w3.org/2000/svg">
<mask id="mask0_3915_12541" style="mask-type:luminance" maskUnits="userSpaceOnUse" x="0" y="0" width="20" height="21">
<path d="M20 0.898438H0V20.8984H20V0.898438Z" fill="white"/>
</mask>
<g mask="url(#mask0_3915_12541)">
<path d="M19.7116 19.3379L15.0119 14.9833C16.4803 13.4354 17.2942 11.4064 17.2914 9.30099C17.2914 4.66804 13.4147 0.898438 8.64572 0.898438C3.87672 0.898438 0 4.66804 0 9.30099C0 13.9339 3.8787 17.7035 8.64572 17.7035C10.4208 17.7054 12.1529 17.173 13.6041 16.1795L18.422 20.6476C18.6018 20.8085 18.8394 20.8944 19.0836 20.8866C19.3279 20.8789 19.5593 20.7782 19.7279 20.6063C19.8965 20.4343 19.9888 20.2049 19.985 19.9674C19.9813 19.7299 19.8816 19.5034 19.7076 19.3366M1.67701 9.30099C1.67701 7.96117 2.08583 6.65143 2.85176 5.53743C3.6177 4.42342 4.70635 3.55518 5.98003 3.04251C7.25371 2.52984 8.65522 2.39577 10.0073 2.65725C11.3594 2.91873 12.6013 3.56402 13.5761 4.51151C14.5508 5.45899 15.2145 6.66612 15.4833 7.98024C15.7521 9.29435 15.6139 10.6564 15.0861 11.8942C14.5584 13.1319 13.6648 14.1898 12.5184 14.934C11.372 15.6782 10.0243 16.0752 8.64572 16.075C6.79797 16.0728 5.02657 15.3583 3.72014 14.0884C2.4137 12.8185 1.67893 11.0968 1.67701 9.30099Z" fill="black"/>
</g>
</svg>
